<?xml version="1.0" encoding="UTF-8" standalone="no"?>
<svg
   xmlns:dc="http://purl.org/dc/elements/1.1/"
   xmlns:cc="http://creativecommons.org/ns#"
   xmlns:rdf="http://www.w3.org/1999/02/22-rdf-syntax-ns#"
   xmlns:svg="http://www.w3.org/2000/svg"
   xmlns="http://www.w3.org/2000/svg"
   xmlns:sodipodi="http://sodipodi.sourceforge.net/DTD/sodipodi-0.dtd"
   xmlns:inkscape="http://www.inkscape.org/namespaces/inkscape"
   viewBox="0 0 16 16"
   width="16px"
   height="16px"
   version="1.1"
   id="svg4"
   sodipodi:docname="icon-linkedin.svg"
   inkscape:version="1.0.2-2 (e86c870879, 2021-01-15)">
  <metadata
     id="metadata10">
    <rdf:RDF>
      <cc:Work
         rdf:about="">
        <dc:format>image/svg+xml</dc:format>
        <dc:type
           rdf:resource="http://purl.org/dc/dcmitype/StillImage" />
        <dc:title />
      </cc:Work>
    </rdf:RDF>
  </metadata>
  <defs
     id="defs8" />
  <sodipodi:namedview
     pagecolor="#ffffff"
     bordercolor="#666666"
     borderopacity="1"
     objecttolerance="10"
     gridtolerance="10"
     guidetolerance="10"
     inkscape:pageopacity="0"
     inkscape:pageshadow="2"
     inkscape:window-width="1920"
     inkscape:window-height="1017"
     id="namedview6"
     showgrid="false"
     inkscape:zoom="29.5"
     inkscape:cx="10.887489"
     inkscape:cy="9.8085964"
     inkscape:window-x="-8"
     inkscape:window-y="-8"
     inkscape:window-maximized="1"
     inkscape:current-layer="svg4"
     inkscape:document-rotation="0" />
  <circle
     style="opacity:1;fill:#828282;fill-opacity:1;stroke-width:9.80186"
     id="path830"
     cx="8"
     cy="8"
     r="8" />
  <path
     d="M 12.455538,12.455629 H 10.58802 V 9.5298497 c 0,-0.6981525 -0.01418,-1.5956644 -0.9723704,-1.5956644 -0.9731583,0 -1.122087,0.7596151 -1.122087,1.5444455 V 12.455629 H 6.6260442 V 6.4393827 h 1.7934481 v 0.8195016 h 0.023639 C 8.6937101,6.7860949 9.3036086,6.287302 10.213728,6.287302 c 1.891158,0 2.24181,1.2450122 2.24181,2.865892 v 3.30007 z M 4.5174034,5.615941 c -0.6004427,0 -1.0842639,-0.4861851 -1.0842639,-1.0850518 0,-0.5972906 0.4838212,-1.0834758 1.0842639,-1.0834758 0.5988666,0 1.0842637,0.4861852 1.0842637,1.0834758 0,0.5988667 -0.4861851,1.0850518 -1.0842637,1.0850518 z m 0.9361231,6.839688 H 3.5812803 V 6.4393827 h 1.8722462 z"
     fill-rule="nonzero"
     id="path2"
     style="opacity:1;fill:#ffffff;fill-opacity:1;stroke-width:0.787982"
     sodipodi:nodetypes="ccsssccccccssccsssssccccc" />
</svg>
